<svg width="450" height="450" viewBox="0 0 450 450" fill="none" xmlns="http://www.w3.org/2000/svg">
<circle cx="225" cy="225" r="225" fill="white"/>
<path d="M127.778 100C112.431 100 100 112.431 100 127.778V322.222C100 337.569 112.431 350 127.778 350H322.222C337.569 350 350 337.569 350 322.222V127.778C350 112.431 337.569 100 322.222 100H127.778ZM127.778 127.778H322.222V322.222H127.778V127.778ZM166.379 146.061C154.476 146.061 147.336 153.216 147.336 162.744C147.336 172.272 154.477 179.4 165.186 179.4C177.088 179.4 184.229 172.272 184.229 162.744C184.229 153.216 177.087 146.061 166.379 146.061ZM148.286 197.222V294.444H183.333V197.222H148.286ZM212.25 197.222V294.444H247.298V241.303C247.298 225.484 258.585 223.21 261.974 223.21C265.363 223.21 274.425 226.609 274.425 241.303V294.444H308.333V241.303C308.333 210.789 294.774 197.222 277.816 197.222C260.857 197.222 251.812 202.869 247.298 210.786V197.222H212.25Z" fill="black"/>
</svg>
